<?xml version="1.0" encoding="UTF-8" standalone="no"?>
<!-- Created with Inkscape (http://www.inkscape.org/) -->

<svg
   xmlns:dc="http://purl.org/dc/elements/1.1/"
   xmlns:cc="http://creativecommons.org/ns#"
   xmlns:rdf="http://www.w3.org/1999/02/22-rdf-syntax-ns#"
   xmlns:svg="http://www.w3.org/2000/svg"
   xmlns="http://www.w3.org/2000/svg"
   xmlns:sodipodi="http://sodipodi.sourceforge.net/DTD/sodipodi-0.dtd"
   xmlns:inkscape="http://www.inkscape.org/namespaces/inkscape"
   id="svg4649"
   version="1.1"
   inkscape:version="0.91 r13725"
   width="585"
   height="496.875"
   viewBox="0 0 585 496.875"
   sodipodi:docname="Moneybag.svg">
  <metadata
     id="metadata4655">
    <rdf:RDF>
      <cc:Work
         rdf:about="">
        <dc:format>image/svg+xml</dc:format>
        <dc:type
           rdf:resource="http://purl.org/dc/dcmitype/StillImage" />
        <dc:title />
      </cc:Work>
    </rdf:RDF>
  </metadata>
  <defs
     id="defs4653" />
  <sodipodi:namedview
     pagecolor="#ffffff"
     bordercolor="#666666"
     borderopacity="1"
     objecttolerance="10"
     gridtolerance="10"
     guidetolerance="10"
     inkscape:pageopacity="0"
     inkscape:pageshadow="2"
     inkscape:window-width="1600"
     inkscape:window-height="837"
     id="namedview4651"
     showgrid="false"
     inkscape:zoom="1.3484277"
     inkscape:cx="292.5"
     inkscape:cy="248.4375"
     inkscape:window-x="-8"
     inkscape:window-y="-8"
     inkscape:window-maximized="1"
     inkscape:current-layer="svg4649" />
  <path
     style="fill:#000000"
     d="m 168.28125,493.08946 c -3.09375,-0.37793 -11.74219,-1.36034 -19.21875,-2.18314 -7.47656,-0.8228 -17.39063,-1.91675 -22.03125,-2.43098 -4.64062,-0.51424 -10.54687,-1.54574 -13.125,-2.29222 -12.12615,-3.51104 -17.907562,-5.32185 -22.617706,-7.08414 -2.809884,-1.05131 -6.691353,-1.91148 -8.625486,-1.91148 -1.934132,0 -5.075635,-0.79484 -6.981116,-1.76631 -1.905482,-0.97147 -5.450327,-2.0641 -7.877435,-2.42806 -9.96792,-1.49479 -29.624043,-16.56588 -35.033767,-26.86172 -0.643039,-1.22384 -3.614765,-4.45357 -6.603835,-7.17718 -5.808424,-5.29257 -7.483913,-7.768 -14.829023,-21.90893 -4.906788,-9.44662 -5.131576,-10.39394 -7.6410867,-32.20155 -3.74829323,-32.57261 5.4451763,-53.31883 32.3969547,-73.10783 4.303943,-3.1601 5.353737,-4.37919 7.684254,-8.92342 2.972793,-5.79659 5.060961,-8.43736 6.676459,-8.44328 0.867233,-0.003 2.811376,-0.64958 4.320319,-1.43646 2.288699,-1.19351 3.551365,-1.24991 7.616341,-0.34021 9.470306,2.11936 23.128732,-2.1879 28.008962,-8.83278 3.439015,-4.68253 2.917419,-35.5583 -0.734225,-43.46241 l -2.67789,-5.7964 2.563209,-5.23901 c 2.547325,-5.20655 2.853328,-10.09678 0.92584,-14.79579 -1.058982,-2.58169 3.75149,-4.04504 6.778125,-2.06192 2.183765,1.43087 2.271665,1.81635 1.555434,6.82178 -1.421728,9.93595 -1.106184,13.70505 1.174594,14.03013 2.480658,0.35356 4.538828,-5.29825 5.488798,-15.0725 0.5952,-6.12397 0.72983,-6.39475 3.82149,-7.68653 3.87463,-1.61892 4.08367,-3.04412 0.62642,-4.27073 -1.41797,-0.50309 -3.32277,-1.34394 -4.23288,-1.86857 -1.1977,-0.69039 -2.43631,-0.5497 -4.48428,0.50935 -3.465273,1.79195 -4.325804,1.82663 -22.510322,0.90715 -14.219855,-0.71901 -21.506898,-0.25841 -21.506898,1.35942 0,1.23266 11.028813,2.86626 19.350734,2.86626 12.153841,0 12.39117,0.55666 6.395222,15 -3.487369,8.40055 -7.499864,11.48774 -9.193727,7.07361 -0.287857,-0.75014 -2.154184,-2.19587 -4.147394,-3.21273 -1.993209,-1.01686 -4.140373,-2.47101 -4.771474,-3.23144 -0.631101,-0.76043 -3.040188,-1.94145 -5.353525,-2.62451 l -4.206069,-1.2419 0.573723,-3.82586 c 0.807104,-5.38216 -2.111548,-6.93141 -17.601728,-9.34315 -1.917018,-0.29847 -4.026959,-1.05345 -4.688758,-1.67772 -0.661798,-0.62428 -3.17781,-2.72172 -5.591138,-4.661 -7.973555,-6.40728 -11.096469,-16.39151 -7.010364,-22.41272 10.754988,-15.84836 29.673094,-30.09835 42.130373,-31.73454 3.208081,-0.42136 8.324701,-1.64461 11.370266,-2.71833 7.707484,-2.71728 9.390676,-2.53598 12.33867,1.32904 2.687833,3.52393 6.081882,4.27652 10.076195,2.23426 5.271554,-2.6953 12.828994,-12.08688 12.828994,-15.9425 0,-3.00473 -10.191422,0.63361 -13.209516,4.7158 -2.456118,3.32207 -3.685632,3.54299 -7.136084,1.28217 -1.915792,-1.25529 -4.579625,-1.62191 -11.92014,-1.64063 -5.895892,-0.015 -9.323926,-0.37687 -9.109968,-0.9616 0.72659,-1.9857 5.735626,-6.99886 9.178909,-9.18645 5.134557,-3.2621 6.570566,-5.24172 7.277383,-10.0323 1.451697,-9.83913 6.880176,-15.80978 17.419416,-19.159163 2.83594,-0.901275 8.01133,-3.040518 11.50088,-4.753887 8.85474,-4.347693 12.02223,-4.706974 19.90537,-2.257827 6.31109,1.960739 7.08328,1.994189 20.15625,0.873143 13.05096,-1.119159 17.31138,-2.104973 27.65625,-6.399341 11.94505,-4.958637 20.75054,-6.932561 27.92601,-6.260165 5.05262,0.47347 7.69787,0.287558 10.08639,-0.708884 1.78068,-0.742869 5.5256,-1.898706 8.32204,-2.568528 2.79644,-0.669822 7.72218,-2.413867 10.94608,-3.875653 8.53301,-3.869053 12.2253,-4.226966 19.0918,-1.850667 3.17701,1.09947 6.19921,1.737719 6.71599,1.418331 7.53903,-4.659375 16.63817,7.905235 13.42065,18.531988 -2.66067,8.787584 12.20443,15.150633 40.4437,17.312043 7.86145,0.60171 8.04729,0.53976 10.96994,-3.65695 0.6528,-0.93739 4.74535,-2.63806 9.5774,-3.97994 12.08644,-3.356456 14.82097,-4.302487 16.40625,-5.675869 0.77344,-0.670052 3.50138,-2.039578 6.0621,-3.043389 4.69699,-1.841233 5.24333,-2.400858 6.71893,-6.882211 1.79606,-5.454617 14.52858,-13.458894 28.05512,-17.636819 6.70486,-2.070917 8.88593,-3.114518 23.3826,-11.188067 5.67187,-3.158808 13.89844,-6.847747 18.28125,-8.197642 4.38281,-1.349896 13.3566,-5.14271 19.94176,-8.428476 6.58515,-3.285766 13.33515,-6.151361 15,-6.367989 1.66484,-0.216627 3.87074,-0.683928 4.90199,-1.038447 5.99755,-2.061809 16.63865,-6.609888 21.09375,-9.015618 9.67661,-5.225315 18.27541,-8.975257 24.375,-10.629959 3.35156,-0.909213 8.02942,-2.6312618 10.39524,-3.8267731 20.20146,-10.2083109 25.19248,-6.0725232 25.21863,20.8973271 0.0123,12.691335 1.0486,16.729166 6.60863,25.750278 8.72867,14.162186 11.95075,32.620301 8.38695,48.045754 -1.30934,5.66735 -1.09887,18.36385 0.38257,23.07827 0.71749,2.28326 1.81241,6.68263 2.43315,9.77638 0.62075,3.09375 1.55361,6.67969 2.07303,7.96875 1.57364,3.90533 3.52963,18.74229 3.54748,26.90906 l 0.0168,7.69031 -3.51562,0.97634 c -1.9336,0.53698 -4.14844,0.98085 -4.92188,0.98637 -0.77343,0.006 -3.09375,1.04939 -5.15625,2.31971 -2.0625,1.27033 -4.47625,2.32286 -5.36389,2.33895 -0.88764,0.0161 -3.84311,1.01513 -6.5677,2.22007 -2.72459,1.20494 -7.83954,2.48645 -11.36656,2.84781 -6.629,0.67916 -13.25736,2.22205 -19.92589,4.63815 -2.11699,0.76701 -7.26596,2.09148 -11.44216,2.94326 -4.17622,0.8518 -10.24883,2.6069 -13.49471,3.90025 -5.31475,2.11772 -10.08312,3.90345 -32.15159,12.04064 -8.0211,2.95757 -10.56484,4.15919 -13.59375,6.4214 -3.91185,2.92169 -8.15695,4.28907 -15.33496,4.93952 l -6.84401,0.62019 -4.87931,-4.33351 c -5.56128,-4.93921 -7.25277,-5.21359 -14.39139,-2.33441 -17.56134,7.08291 -25.74406,5.75116 -30.23364,-4.92055 -1.16787,-2.77602 -3.44212,-8.21137 -5.05387,-12.07856 -3.68384,-8.83882 -4.73804,-9.66634 -11.5695,-9.08168 -7.89773,0.6759 -16.30942,5.38015 -38.25582,21.39464 -7.29704,5.32472 -32.92802,14.25758 -53.67187,18.70561 -7.23009,1.55032 -5.96077,8.35643 1.55845,8.35643 1.1048,0 2.94341,0.65468 4.0858,1.45485 2.76683,1.93795 9.43949,3.80222 18.02762,5.03672 16.00633,2.30081 37.48243,17.35389 51.59586,36.16468 2.70806,3.60937 5.8741,7.61719 7.03566,8.90625 3.76605,4.17945 10.66967,18.58869 13.15142,27.44967 1.33155,4.75424 3.01254,10.76054 3.73553,13.34733 1.36908,4.89847 0.72307,16.0328 -1.22294,21.078 -0.49721,1.28906 -1.19593,4.66406 -1.55273,7.5 -1.34824,10.71663 -7.62878,31.80768 -11.60869,38.98386 -0.88157,1.58956 -2.40241,4.54268 -3.37965,6.5625 -5.07208,10.48329 -7.04399,13.66731 -12.72537,20.54739 -3.40631,4.125 -7.02118,8.82871 -8.03306,10.45268 -2.1849,3.50658 -12.45286,12.83366 -16.34269,14.84517 -1.50917,0.78042 -4.55871,2.62475 -6.77676,4.09851 -9.30626,6.18345 -24.62695,13.28641 -38.74198,17.96152 -8.23809,2.72857 -19.36477,6.6068 -24.72596,8.61829 -5.36118,2.01149 -10.84556,3.83667 -12.1875,4.05595 -33.64245,5.49755 -52.91941,6.93871 -68.06489,5.08859 z M 101.96354,332.57812 c 0.94399,-1.17294 5.03157,-13.91691 7.29198,-22.73437 2.24585,-8.76069 6.76838,-24.35514 8.70028,-30 4.09373,-11.96153 5.88367,-19.50743 7.66493,-32.31303 1.01627,-7.30609 2.09302,-13.68063 2.39278,-14.16564 0.98662,-1.59639 -0.60455,-4.61508 -2.43263,-4.61508 -1.12563,0 -2.46475,1.30828 -3.59853,3.51563 -1.4583,2.83916 -3.37356,4.32738 -9.95374,7.73437 -12.535635,6.49053 -14.252113,8.39733 -14.979716,16.64062 -0.61006,6.91164 0.5124,9.22354 2.254059,4.64264 0.968937,-2.54851 18.692467,-19.599 19.715437,-18.96677 0.91958,0.56833 -1.23085,11.88381 -4.28116,22.52726 -1.32995,4.64062 -3.0418,11.39062 -3.80412,15 -1.60505,7.59955 -4.58084,18.20596 -10.17078,36.25095 -4.578589,14.78023 -3.984871,22.92735 1.20121,16.48342 z m 41.91654,-30.23437 C 143.27027,278.92971 140.69479,262.5 137.63428,262.5 c -1.3959,0 0.65489,32.97994 2.97312,47.8125 0.52383,3.35156 1.22279,7.92189 1.55324,10.15629 1.37629,9.30591 2.20607,0.55901 1.71944,-18.12504 z m 128.47959,17.31799 c 0.32743,-0.5298 -0.2653,-2.32277 -1.31718,-3.98438 -1.05187,-1.66161 -3.24068,-5.55236 -4.86402,-8.64611 -1.62333,-3.09375 -3.53957,-6.29393 -4.25831,-7.1115 -0.71874,-0.81758 -2.56208,-4.07789 -4.09633,-7.24514 -3.06243,-6.32205 -11.76748,-19.30254 -18.34971,-27.36211 -2.3161,-2.83594 -5.94996,-7.38673 -8.07522,-10.11287 -4.32752,-5.55101 -17.75195,-16.13713 -20.46377,-16.13713 -4.43806,0 -3.24193,2.86632 4.67404,11.20057 2.66778,2.80875 6.7914,7.66032 9.16359,10.78125 2.37218,3.12094 8.15792,10.73693 12.85719,16.92443 4.69927,6.1875 9.96903,13.78125 11.71059,16.875 1.74155,3.09375 4.30406,7.10156 5.69446,8.90625 1.39039,1.80469 3.43645,5.07422 4.5468,7.26562 1.11034,2.19141 2.36179,3.98438 2.78101,3.98438 0.4192,0 1.99266,1.25391 3.49656,2.78646 2.78859,2.84169 5.43176,3.60422 6.5003,1.87528 z M 174.375,280.33658 c 0,-0.50239 -1.21619,-1.54235 -2.70265,-2.31103 -1.50871,-0.78018 -2.97558,-2.48502 -3.32047,-3.85914 -0.33979,-1.35384 -2.28766,-5.10557 -4.3286,-8.33716 -2.04092,-3.23159 -3.71078,-6.21208 -3.71078,-6.62332 0,-1.55073 -4.84253,-7.01843 -6.21595,-7.01843 -2.09285,0 -0.78768,5.10207 2.59776,10.15501 1.49657,2.2337 3.56113,5.708 4.58792,7.72067 1.02679,2.01267 2.95463,4.3721 4.28408,5.2432 1.32945,0.87109 2.79015,2.56476 3.24599,3.76371 0.82989,2.1828 5.5627,3.26034 5.5627,1.26649 z m 124.3357,-7.02206 c 0.9762,-2.54391 -9.96058,-13.77938 -18.28393,-18.78327 -0.85768,-0.51562 -2.81629,-1.83241 -4.35246,-2.92619 -1.53619,-1.09378 -4.48056,-2.81551 -6.54306,-3.82606 -32.68508,-16.01457 -37.95767,-19.79231 -23.19714,-16.62043 16.53599,3.55341 20.71956,-1.41446 5.38464,-6.39412 -18.24519,-5.92469 -29.61066,-5.76114 -32.65534,0.46993 -0.95923,1.96311 -2.40824,3.51817 -3.28125,3.5214 -0.85987,0.003 -2.82904,0.67866 -4.37591,1.50108 -4.67793,2.48711 -17.54136,6.091 -22.03125,6.17241 -8.80358,0.15962 -34.87966,-2.90203 -37.09839,-4.3558 -3.52172,-2.30752 -9.55514,-8.96297 -10.75814,-11.86728 -2.21342,-5.34366 7.46823,-20.61577 13.93731,-21.98511 1.38213,-0.29255 3.63275,-1.13699 5.00137,-1.8765 1.36862,-0.73952 3.18254,-1.34458 4.03093,-1.34458 0.84839,0 2.88574,-0.69459 4.52743,-1.54355 7.63955,-3.95057 34.47907,-3.43281 40.38607,0.77907 l 2.68285,1.91295 7.1609,-2.05954 c 3.93851,-1.13275 8.42655,-2.60595 9.97342,-3.2738 1.54687,-0.66784 5.55469,-2.35551 8.90625,-3.75037 9.87139,-4.10832 14.14029,-6.45639 16.01322,-8.80795 4.37788,-5.49664 9.06888,-19.58558 6.2035,-18.63157 -0.61764,0.20564 -1.272,1.18267 -1.45413,2.1712 -0.72545,3.93722 -6.70009,7.26126 -6.70009,3.72764 0,-4.84885 -8.50191,1.98913 -11.84396,9.52597 -5.78701,13.05055 -32.4042,16.15233 -27.21006,3.17087 1.40731,-3.5172 1.41672,-3.95745 0.0954,-4.46448 -2.10727,-0.80863 -6.8397,4.07942 -7.53432,7.78206 -0.33826,1.80307 -1.28393,3.30888 -2.2757,3.62366 -1.8471,0.58624 -6.48934,-0.3092 -6.63288,-1.27942 -0.0964,-0.65193 -0.82571,-53.0692 -0.83987,-60.36712 -0.0232,-11.92119 -4.48131,-5.04566 -5.19728,8.01539 -0.28832,5.2595 -0.97433,12.51586 -1.5245,16.12524 -0.55016,3.60937 -1.09892,12.29954 -1.21945,19.31148 -0.28,16.2878 -1.10063,17.18379 -19.6549,21.45967 -23.77392,5.47877 -35.30289,17.29092 -33.07662,33.88905 0.49803,3.71305 7.8813,12.99605 10.33647,12.99605 0.46012,0 3.00723,1.13411 5.66024,2.52024 4.19394,2.19124 5.80275,2.49703 12.32365,2.34235 11.30362,-0.26814 11.71026,-0.084 15.46875,7.00521 6.05001,11.4114 14.58154,18.64389 27.0548,22.93531 12.91714,4.44416 12.3043,1.4497 -1.17196,-5.72643 -19.67602,-10.47748 -29.05521,-22.48061 -17.62438,-22.55501 8.91634,-0.058 13.98865,-1.2488 16.88354,-3.96358 1.46298,-1.37195 4.56171,-2.78528 7.41101,-3.38017 2.69321,-0.5623 6.48384,-1.87298 8.42362,-2.91264 6.55894,-3.51538 9.3231,-2.7411 16.67962,4.67222 3.58172,3.60937 6.8718,6.5625 7.31129,6.5625 0.43949,0 3.61487,1.64419 7.05639,3.65376 3.44153,2.00956 8.78857,5.02858 11.88232,6.70892 3.09375,1.68034 10.38479,6.25881 16.20231,10.17437 17.52915,11.79822 18.62224,12.35569 19.53964,9.96497 z m -17.30609,-51.247 c 3.21017,-1.64145 4.50998,-15.37061 2.33351,-24.64779 -1.90596,-8.12421 -3.42562,-6.51567 -3.42562,3.62601 0,9.54804 -1.25233,14.20394 -4.85085,18.03439 -3.85968,4.10844 -0.0221,6.0375 5.94296,2.98739 z M 177,220.125 c 2.98,-2.98 -1.18955,-16.21875 -5.1081,-16.21875 -0.98487,0 -1.61643,0.56043 -1.46003,1.2956 0.15159,0.71258 0.6357,4.1634 1.07582,7.66848 1.05825,8.42794 2.46323,10.28375 5.49231,7.25467 z m 224.10571,-1.28551 c 16.93428,-4.70601 23.86104,-10.55903 13.85587,-11.70801 -7.79234,-0.89488 -9.51648,-6.20158 -3.85448,-11.86358 5.07131,-5.07131 5.13724,-5.41135 2.76325,-14.25255 -2.66841,-9.93769 -3.72972,-12.74578 -6.04732,-16.00057 -2.92815,-4.11221 -12.82422,-24.44179 -14.38246,-29.54603 -3.96896,-13.00087 -11.39312,-28.25232 -17.53528,-36.022734 l -3.96251,-5.012963 -6.9087,0.584006 c -3.88847,0.328697 -9.26534,1.558969 -12.29951,2.814235 -2.96494,1.226625 -6.59492,2.516706 -8.0666,2.866836 -5.35682,1.27447 -7.41381,3.37209 -6.91965,7.05634 0.53684,4.00246 20.17141,46.3385 27.85367,60.05803 1.01053,1.80469 3.51303,7.5 5.56109,12.65625 3.95564,9.95878 13.03415,28.35908 17.18371,34.82789 3.53481,5.51048 4.60709,5.80823 12.75892,3.54285 z m -131.18959,-1.25561 c 3.8812,-3.8812 4.60497,-18.19175 1.1988,-23.70305 -6.08678,-9.84863 -11.07554,-8.1027 -6.28033,2.19795 3.10239,6.66429 3.10548,12.37846 0.009,16.9351 -2.63247,3.87403 -2.8733,5.05369 -1.17188,5.74023 2.39442,0.96617 4.50301,0.57101 6.24425,-1.17023 z m -52.26966,-8.54619 c -0.34921,-6.57587 -0.88273,-7.82087 -2.83452,-6.6146 -3.33017,2.05816 -1.9158,13.69893 1.57944,12.99929 1.32467,-0.26515 1.52574,-1.28801 1.25508,-6.38469 z m 9.69602,-0.81179 c -0.74824,-5.02767 -0.85518,-5.19998 -2.7708,-4.46489 -1.64114,0.62976 -1.88348,4.03055 -0.53919,7.5663 1.64739,4.33297 4.07754,2.05596 3.30999,-3.10141 z M 418.125,202.03125 c 1.43294,-1.72658 -0.2285,-4.21875 -2.8125,-4.21875 -3.55714,0 -4.25505,3.67879 -0.9375,4.94167 2.19594,0.83592 2.50587,0.77617 3.75,-0.72292 z M 84.84375,196.875 c 0,-1.09537 -1.502629,-1.46714 -6.796875,-1.6817 -6.524186,-0.26439 -9.527339,1.31386 -5.625,2.95612 2.726718,1.14752 12.421875,0.15284 12.421875,-1.27442 z m 46.3919,-2.10938 c -0.0246,-2.00694 -1.21078,-3.15323 -7.0169,-6.78085 -3.09375,-1.93295 -7.12059,-4.51775 -8.94854,-5.744 -1.82796,-1.22625 -5.83577,-3.21445 -8.90625,-4.41821 -3.07049,-1.20376 -7.414932,-3.34573 -9.654319,-4.75994 -5.768552,-3.64293 -8.46064,-2.49191 -3.769573,1.6117 5.856195,5.12282 15.017742,11.09468 25.653682,16.72208 8.41868,4.45425 12.66907,5.58704 12.6419,3.36923 z M 155.4375,181.6875 c 2.25898,-2.25898 0.0631,-9.3524 -5.89134,-19.03125 -1.58608,-2.57813 -3.42202,-5.74219 -4.07987,-7.03125 -5.7285,-11.22498 -7.00958,-6.07923 -2.33398,9.375 4.63069,15.30584 8.47434,20.51835 12.30519,16.6875 z m 98.04549,-25.0094 c 2.79551,-2.91787 11.89447,-29.16557 13.20223,-38.08435 0.37803,-2.57812 1.09989,-5.45843 1.60412,-6.40069 0.50424,-0.94225 1.47865,-3.68444 2.16535,-6.09375 0.6867,-2.40931 1.54733,-5.32978 1.91252,-6.489935 0.49021,-1.557328 0.2888,-2.109375 -0.76957,-2.109375 -1.84409,0 -9.37516,13.0222 -11.32158,19.5765 -1.32274,4.45418 -3.78157,10.24017 -11.44892,26.94105 -5.62523,12.25278 -2.66516,20.30205 4.65585,12.66055 z m -25.0762,-0.57346 c 0.83767,-2.18291 -1.49817,-10.58389 -5.086,-18.29214 -1.8,-3.86719 -4.58432,-10.58339 -6.18738,-14.92489 -3.04352,-8.24262 -4.62485,-10.06323 -5.59499,-6.44157 -1.64753,6.15038 0.45381,17.97211 4.71445,26.52271 1.54157,3.09375 3.36728,7.10156 4.05712,8.90625 2.14271,5.60552 6.66275,7.96672 8.0968,4.22964 z m -98.34951,-20.76938 c 0.656,-0.89712 1.19272,-2.82815 1.19272,-4.29118 0,-15.18256 13.82648,-22.8244 32.86495,-18.16432 13.14602,3.21777 15.88505,2.10025 15.88505,-6.4811 0,-3.92578 1.98032,-5.91044 10.02455,-10.046526 6.23793,-3.207348 8.13967,-6.012848 5.90284,-8.708058 -2.35758,-2.840726 -11.33027,0.260414 -12.67884,4.382065 -0.28027,0.856566 -1.94548,2.652622 -3.70049,3.991231 -2.57857,1.966762 -3.24618,3.175809 -3.47887,6.300178 l -0.28794,3.86635 -10.3125,0.22784 c -14.05616,0.31055 -28.64653,1.74699 -31.03911,3.05583 -4.82039,2.63696 -8.99306,13.83068 -6.54716,17.56359 1.53154,2.33742 1.52724,2.34384 -1.56847,2.34384 -6.80712,0 -15.2344,6.66861 -9.88443,7.82167 4.33046,0.93333 12.389,-0.16738 13.6277,-1.86141 z m 87.39282,-34.92495 c 4.16864,-8.171207 8.84464,-8.848909 20.26815,-2.937507 10.08862,5.220637 13.50087,3.450287 8.25352,-4.282102 -2.20767,-3.253188 -2.34642,-3.929157 -1.32582,-6.458951 2.11748,-5.248667 2.20919,-6.10675 0.65263,-6.10675 -1.91746,0 -3.43837,2.899308 -3.82534,7.292195 -0.35205,3.996511 -3.61037,5.216406 -7.39322,2.767974 -7.57748,-4.904507 -16.87756,-1.311393 -20.77886,8.027975 -2.59188,6.204736 1.08255,7.707786 4.14894,1.697166 z M 51.609345,285.76925 c -6.605956,-3.44477 -7.275179,-12.55522 -1.659059,-22.58556 1.81296,-3.23794 1.8851,-3.99127 0.858271,-8.96269 -2.934021,-14.20512 1.675371,-29.46999 7.382127,-24.44729 1.252936,1.10275 3.227285,2.63769 4.387441,3.41097 2.471608,1.64741 2.629885,3.46558 0.703125,8.07697 C 60.891552,246.981 61.751877,255 64.75518,255 c 0.346598,0 0.907103,-1.73179 1.245565,-3.84841 1.836499,-11.48483 12.137336,-16.43889 16.312443,-7.84526 6.646885,13.68129 -0.190775,19.68836 -18.094087,15.89614 -8.014415,-1.69758 -7.969101,-1.69712 -7.969101,-0.0808 0,4.27846 10.794567,10.18645 19.931508,10.90874 8.437572,0.66699 10.39811,2.15155 9.665537,7.31891 -0.850807,6.00135 -5.222045,8.2394 -5.222045,2.67365 0,-4.04099 -1.839622,-6.58741 -4.125312,-5.71031 -1.476085,0.56643 -1.657392,1.38849 -1.226671,5.56178 0.781161,7.56872 -13.588934,11.14846 -23.663672,5.89485 z"
     id="path5209"
     inkscape:connector-curvature="0" />
  <text
     xml:space="preserve"
     style="font-style:normal;font-weight:normal;font-size:90px;line-height:125%;font-family:sans-serif;letter-spacing:0px;word-spacing:0px;fill:#000000;fill-opacity:1;stroke:none;stroke-width:1px;stroke-linecap:butt;stroke-linejoin:miter;stroke-opacity:1"
     x="448.67068"
     y="359.67816"
     id="text4232"
     sodipodi:linespacing="125%"><tspan
       sodipodi:role="line"
       id="tspan4234"
       x="448.67068"
       y="359.67816" /></text>
  <text
     xml:space="preserve"
     style="font-style:normal;font-weight:normal;font-size:90px;line-height:125%;font-family:sans-serif;letter-spacing:0px;word-spacing:0px;fill:#000000;fill-opacity:1;stroke:none;stroke-width:1px;stroke-linecap:butt;stroke-linejoin:miter;stroke-opacity:1"
     x="505.77423"
     y="379.70148"
     id="text4236"
     sodipodi:linespacing="125%"><tspan
       sodipodi:role="line"
       id="tspan4238"
       x="505.77423"
       y="379.70148" /></text>
</svg>
