<!DOCTYPE svg PUBLIC "-//W3C//DTD SVG 1.1//EN" "http://www.w3.org/Graphics/SVG/1.1/DTD/svg11.dtd">
<!-- Uploaded to: SVG Repo, www.svgrepo.com, Transformed by: SVG Repo Mixer Tools -->
<svg fill="#000000" version="1.1" id="Capa_1" xmlns="http://www.w3.org/2000/svg" xmlns:xlink="http://www.w3.org/1999/xlink" width="64px" height="64px" viewBox="0 0 390.33 390.33" xml:space="preserve">
<g id="SVGRepo_bgCarrier" stroke-width="0"/>
<g id="SVGRepo_tracerCarrier" stroke-linecap="round" stroke-linejoin="round"/>
<g id="SVGRepo_iconCarrier"> <g> <g> <path d="M340.157,202.992c-13.912-23.443-33.248-47.698-57.471-72.09c-12.744-12.833-25.424-24.293-36.9-34.034 c14.727-1.369,26.295-13.791,26.295-28.87c0-15.991-13.01-29-29-29c-4.84,0-11.945,2.41-19.377,5.69l24.994-31.738 c1.895-2.408,2.25-5.686,0.912-8.443C248.272,1.751,245.476,0,242.413,0h-94.497c-3.064,0-5.859,1.75-7.197,4.507 c-1.338,2.757-0.983,6.035,0.912,8.443l24.994,31.738c-7.432-3.281-14.537-5.69-19.378-5.69c-15.991,0-29,13.009-29,29 c0,14.311,10.422,26.226,24.074,28.573c-10.865,8.886-22.705,19.258-34.6,30.913c-24.269,23.778-43.641,47.934-57.578,71.798 c-17.696,30.301-26.668,60.261-26.668,89.048c0,23.358,11.106,49.089,29.709,68.831c20.156,21.39,45.829,33.169,72.291,33.169 h139.379c26.873,0,52.516-11.148,72.203-31.391c18.938-19.47,29.797-45.205,29.797-70.609 C366.854,261.555,357.872,232.843,340.157,202.992z M256.081,67.999c0,7.168-5.83,13-13,13c-4.385,0-17.26-5.955-30.047-13.001 c12.783-7.046,25.654-12.999,30.047-12.999C250.251,54.999,256.081,60.831,256.081,67.999z M225.931,16.002l-30.766,39.066 l-30.765-39.066H225.931z M134.248,67.999c0-7.168,5.832-13,13-13c4.386,0,17.26,5.955,30.048,13.001 c-12.784,7.046-25.656,12.999-30.048,12.999C140.08,80.999,134.248,75.167,134.248,67.999z M264.854,374.33H125.476 c-47.639,0-86-47.047-86-86c0-59.073,43.08-113.74,79.22-149.198c23.553-23.108,47.312-41.287,62.884-52.34l-19.199,68.375 c-1.194,4.254,1.285,8.67,5.54,9.865c0.723,0.203,1.451,0.3,2.167,0.3c3.495,0,6.707-2.309,7.698-5.839l17.381-61.9l17.381,61.9 c0.99,3.531,4.203,5.839,7.697,5.839c0.717,0,1.443-0.097,2.168-0.3c4.254-1.194,6.732-5.611,5.539-9.865L209.093,88 c42.07,32.022,141.764,116.732,141.764,200.329C350.854,334.144,310.667,374.33,264.854,374.33z"/> </g> </g> </g>
</svg>